# xmcd
#
# Track frame offsets:
#	150
#	48899
#	113733
#	155062
#	183781
#
# Disc length: 3896 seconds
#
# Revision: 0
# Processed by: cddbd v1.5.1PL0 Copyright (c) Steve Scherf et al.
# Submitted via: audiograbber 1.83.01
#
DISCID=350f3605
DTITLE=Dickey Betts Band - 2001-05-14 - Northern Lights,Albany, NY - Disc 2
DYEAR=1900
DGENRE=
TTITLE0=The Lights Are On
TTITLE1=Jessica
TTITLE2=You're Leavin' Baby
TTITLE3=Singing While I'm Walking
TTITLE4=Liz Reed-Drums-Liz Reed
EXTD=
EXTT0=
EXTT1=
EXTT2=
EXTT3=
EXTT4=
PLAYORDER=
